<svg version="1.2" xmlns="http://www.w3.org/2000/svg" viewBox="0 0 1289 300" width="709" height="165">
	<title>mega</title>
	<style>
		.s0 { fill: #000000 } 
	</style>
	<path id="button-border" class="s0" d="m1227 20.9v-1.4l7.8-0.3 1.8-0.6h2.3l-0.6 0.6h14v-4.7h1l0.7 0.6v4h1.7v0.7c0 0.8-1 1-1.7 1v4.8l8 1h8.9v0.7h1.7-1.7l-17-0.5v24.2c0 1.7-0.5 3.4-1.6 4.7v1.1c0.5 1.8 0 3-0.6 4.7v7l-0.6 3.5-1.2 1.7-0.5 2.3v0.6c0 3.5 1.7 5.8 1.7 9.3l0.6 1.2c-1.2 0.5 0 1 0 1v6.4l0.6 1.2v7l1 1.1v-4c0.7-0.6 0-1.8 0-2.4v-7.4l1.3-1.2 1-0.6v1.3l0.7 1.1v2.8l0.6 3v19.6c0 0.6-0.6 1.8 0.6 1.8v14.5c1 0.6 1 1.2 1 1.7v7c-0.4 1.8 0 3 0.7 4v34.3l-0.6 2.3v19.2l0.6 1.7v8.6l2.4 2.4v6.3c0 1.8 0 3.5 1 4.7v12.7l1.3 4v2.4l-1.8 1.7v2.3l-0.5 4v3.6l-0.6 2.3v4l-2.4 0.7v1.7l-0.5 0.6v12.7l0.6 1.1c0 0.6-1.2 1.8 0 2.4v15.7l-0.6 1.7v2.9h-1.2v-7.6l-0.6-1v-28c0.4-1.6 1.2-3.2 2.4-4.6v-6.4l0.5-3v-5.7l1.8-2.3v-2.2c0-3.5-1.8-6.4-1.8-9.3v-1.8c0.6 0 0-1 0-1v-5.9l-1.1-1.8v-6.4l-1.2-1.7v14l-0.6 1.1-1.1 1.2-0.6-1.8v-5.2c-1.2-0.6-1.2-1.2-1.2-2.3v-19.1c0-1.2 0.6-1.8 0-2.3v-1.9c0-0.6 0.6-1.7-0.6-3v-9.8l-0.5-1.7v-2.3c0.5-1.2 0-3-0.6-4v-37.2l-0.6-0.6v-0.6l0.6-3v-17.8h0.6v-1l-1.2-1.3v-9.9c-0.6-0.6-1.7-1-1.7-2.3l-0.6-1.7c0.6-1.2 0.6-3-0.6-4v-0.8c0.6-1.7 0-2.9 0-4.5v-12.2c0-1.8-2.3-3-1.2-4.7-0.6 0 0-1.2 0-1.2l1.2-1.7 0.6-1.7v-8.8l1-2.3v-3.5c0-1 1.9-1 1.9-1l0.6-1.3v-15c0-0.7 1-1.3 0-2.4v-8.2h-0.6l-3.5-0.5h-1.2l-11.6-1.2h-6.4c-1.7-0.6-3-1.2-4.6-0.6l-17.5-1.7h-4c-0.6 0-1.8 0-2.4-1.2q-0.4 0.1-0.8 0.2-0.5 0.1-0.9 0.1-0.4 0-0.9-0.1-0.4-0.1-0.8-0.2l-13.4 0.6h-1.8l-4.6 0.6h-25l-8.1-0.6h-4.7c-1.1 0.4-2.3 0.5-3.5 0.6h-12.2c-0.5 0-1.7 0.5-2.3 0h-1.2l-39.5 1h-8.7l43.6-1c-0.8 0-1.6-0.2-2.3-0.6h-30.4l25.5-1.2h58l7-0.6h5.3-7l-0.5-0.5h-1.8l-4-0.6-2.4-0.6c0-0.6 1.2-0.6 1.2 0h8.7l1.8 0.6h6.4c2.3 0.4 4.6 0.8 7 1l11.6-0.4h1l5-0.6 4.3-0.4 17 0.7v1.4l-19.3-0.5-1.5-0.5 0.4 1.3 10.5 1.5h8l1.3 0.5h1.7l19.2 1.8 4.7 0.6v-4.7h-25.1zm-615.2 259.1h-8c-1.6-1-4.5 0-7 0h-15.6l-7.5-0.5h-2.3l-49.4 1.2c-1.6-0.2-3.2 0-4.7 0.5h-0.5l-3.5-0.5-2.3 0.5h-23.3c-1.2 1.2-3.5 0.6-5.8 0.6-2.3 0.5-4.7 0.5-7 0h-19.9l-3.5-0.6h-2.5l-0.6 0.6h-0.6c-0.6-0.3-1.1-0.5-1.8-0.6h-8.7l-3 0.6h-5.1c-2.3 1.2-4.7 0-7 0h-1.1l-6 0.6h-5.7l-1.1 0.6 5.8 0.6h50l4.6-0.6h0.6c1.7 0 1.7 1.1 3.5 0.6l2.3-0.6h9.9l1.7 0.6 2.4-0.6h2.3c0 0.6 0 0 0.6 0h2.3l2.3 0.6h1.2c1.7-1.2 3.5-0.6 5.8-0.6h1.7l5.3 0.6h18.5l3.5 0.5h21.5c2.4-1 4 0 5.8 0h13.4l1.2-1h2.3c1.2 1 4.6 0 5.8 1h5.8l1.8-1 1.7 0.5 5.8-0.6h2.3c0.6 0.6 0 1.7-0.5 1.1l-5.8 1.2h-56l-3.3 1.2h-17c-1.6-1.2-2.8-1.2-4.5-0.6q-0.9 0.3-1.9 0.5-0.9 0.2-1.9 0.2-1 0-1.9-0.2-1-0.2-1.9-0.5h-16.8c-1.8 0.6-3.5 1.2-5.3 0.6h-18q-0.4 0.1-0.9 0.2-0.4 0-0.9 0-0.4 0-0.8 0-0.5-0.1-0.9-0.2c0-0.6-1.1-0.6-1.1 0-3 0.5-6 0.5-8.7 0h-30.8l-5.3-0.6h-18q-0.5-0.4-1-0.6-0.6-0.3-1.2-0.4-0.6 0-1.2 0.1-0.6 0-1.2 0.3h-17.5c-2-0.6-3.8-1-5.8-1.2h-19.2c-2 0.5-4 0.5-5.8 0h-30.8c-1.7 0-4 0-5.8-1h-84.8c-2 0.2-4 0-5.8-0.7h-24.4l-3 0.6c-1.1-1.2-3.4-0.6-5.8-0.6h-0.5c-1.4-0.3-3 0-4.1 0.6-2.3-0.6-4.7-1.2-7-0.6h-47l-4.1-0.6-3.5 0.6h-17.3l-4.7 0.6h-14.4q-0.4 0.1-0.9 0.2-0.4 0-0.8 0-0.5 0-0.9 0-0.5-0.1-0.9-0.2h-11.6c-1.1 0.5-2.4 0.5-3.5 0h-11.6c-1.6-0.2-3.2-0.6-4.7-1.2v-1h71.5c1.2 0 2.9 0 4.6-1.3h1.8l4 0.6h20.4c2.3 0 4 0 5.8 1.1h4.7l3.4-1h8.8c1 1 1.7 0.5 2.9 0h44c1.9 0 4.2 0 5.9 1h22.7c1.7 0 3.5 0 5.2-1h4c1.8 1 3 1 4.8 1h12.2l4-0.5h39.5c1.8 0 3.5 0 4.7 1.1h25l4 0.6 2.4-0.6h8l1.8 0.6h10.5l4 0.6h6.5l4-1.2h9.3c1.8 0 4 0 6.4-1h1.2l1.2 0.4h1l3-0.5h2.9v0.5c2.3-0.5 5.3-1 7.6-0.5h14.3l10.5-0.6q3.2-0.6 6.3-0.9 3.2-0.3 6.4-0.4 3.2 0 6.4 0.1 3.2 0.2 6.4 0.6l4-1.2c1.3 0 2.4 0 4 1.2h2.5l5.8-0.6h9.3c1.2-0.6 3-1 4.7-0.6h1.7l17.4-0.5h4l1.3 0.5c3-1 6-1.4 9.3-1h55.2l4.6 0.5h91.8l-30.8 1.1h-23.2l1.7 1.2h-22.8zm-591.5-268.2v-11.8h0.6l1 0.6 0.7 0.6v5.8c-0.6 0.6 0 0.6 0 0.6v3.4h1.2l1 0.6h1.3c1.7-0.7 3.6-0.7 5.2 0 3-0.6 5.3-1.1 7.6-0.6h27.1c1.2-0.5 2.9-1.1 4-0.5h17.5c2.6-1 5.5-1 8 0h44.5c2-0.4 3.9-0.4 5.8 0h34.2l5.8 0.5h12.2l5.2 0.6c1.8 0 3 0.6 4.7 0h18l5.2 1.2h19.2l5.8 0.6h1.8l1-0.6h1.3l3.5 0.6h22.6l5.9 0.5h84.8l5.8 0.6h92.4l4 0.6h21c1.7 0 3.5 0 5.2-1.2h28q0.5-0.3 1-0.4 0.5-0.1 1-0.1 0.5 0 1 0.1 0.5 0.1 1 0.4l2.9 0.6h2.3l10.5 1.2c0 1.2-1.8 1.2-3 1.2h-14.5l-2.3-0.6h-33.7q-0.4 0.1-0.9 0.2-0.4 0-0.8 0-0.5 0-0.9 0-0.5-0.1-0.9-0.2h-13.3c-1.8 0-3.5 0-5.3 1h-5.2l-3-0.4h-18c-2 0-4-0.3-5.7-1.2h-4.6l-3 1.2h-9.2c-1.1-1.2-1.7-0.6-3 0h-44.1l-5.8-0.6h-32.5q-0.6-0.3-1.1-0.4-0.6-0.1-1.2-0.1-0.7 0-1.3 0.1-0.5 0.1-1.1 0.4h-16.2c-2-0.5-4-0.5-5.8 0h-33.7l-4.7-0.6h-25c-1.1 0-3 0-4-1.2-0.6 0-1.2 1.2-2.4 0.6-2 0.5-4 0.5-5.8 0h-2.3c0 0-1.2-0.6-1.2 0h-10.6l-4-1.2h-1.7l-3.5 0.6h-2.4c-1.4-0.8-3-1-4.6-0.6h-17.4c-2.4 0.3-4.8 0-7-0.5h-50c-1.7-0.4-3.5-0.4-5.2 0h-10l-2.8 0.5h-3.5l-2.3-0.5h-41.8c-1.1 0-2.3 0-3.4-1.2h-1.4l-1.2 0.6h-17.8c-2.3 1-4.6 0-6.4 0h-14l-1 0.6h-3v23.1c0 1.8-0.6 3-1.7 4.7v0.5l-0.6 5.3v3.5l-0.6 3v2.8c0 1.1-1.7 1.7-1.7 2.3 0.5 0.6 0 1.2 0 2.3v9.3l1 1.3c-1.1 0 0 1 0 1v6l0.6 1.7v6.3l1.2 1.7v-8.7l0.6-3.5v-3l1-1v1.7l1.3 1.2c-0.6 0 0 1 0 1v3l1 2.9v21.4l0.7 1.8c0 0.6-1.1 2.3 0 3.5v9.3c1.2 0.5 1.2 1.1 1.2 2.3v7c-0.6 1 0 2.9 0.6 4v33.6l-0.6 2.4v19l0.6 1.3v9.3l2.3 2.3v6.4c0 1.8 0 3.5 1 4.7v12.1l1.3 4.6v1.2l-1.7 1.7v4l-0.6 4.2v3.4l-0.6 1.8v2.9c0 1.2-2.3 1.2-2.3 1.2v2.3l-0.6 0.6v14c0 0.5-1.2 1 0 2.2v20.3h-1.2v-7.6h-0.5v-29q0.1-0.6 0.2-1.2 0.2-0.6 0.4-1.2 0.2-0.6 0.5-1.1 0.3-0.6 0.6-1.1v-0.6l0.6-5.2v-4l0.6-2.4v-3.5l1.8-1.7v-3c0-2.8-1.7-5.7-1.7-9.2v-1.2c0.5-0.6 0-1 0-1v-1.9l-0.6-2.2v-2.3l-0.7-1.2v-6.4l-1.2-1.7v14.3l-0.5 1.2-1.2 0.5-0.6-1v-1.3l-0.6-1.2v-2.8l-0.5-2.3v-23c0-1.2 0.5-2.4-0.6-3v-10.4l-0.6-1.7v-1.9c0.6-1.7 0-2.9-0.6-4v-38.3h-0.6v-1.2l0.6-2.3v-25.6l-0.6-1v-4c-0.6-0.7-1.7-1.3-1.7-2.4l-0.6-1.8v-4.7l-0.6-4.7v-12.1c0-1.7-2.3-2.9-1.1-4.6-1.2-0.6 0-1.2 0-1.2l1.7-1.7v-9.3l1.2-2.3v-4l1.7-0.7v-1.7l0.6-0.6v-14c0-0.4 1.2-1.6 0-2.2v-7.5h-6.4c-0.8-0.2-1.6-0.2-2.3 0l-1.8 1-1.1-0.5c-2.1-0.6-4.3-0.6-6.4 0h-1.7c-1.1-0.5 0-1.7 0-1.7h15.7c1.2 0 2.7 0 4-0.4zm629.6 267.8l13-0.6h57.6l7-0.6h9.9l16.3-0.5h1.7l4.7-0.6h28.4l2.4-0.6h2.3l-0.6 0.6h12.2c1.6 0 3 0.2 4.6 0.6-0.5 1.1-1.7 1.1-3 1.1h-42.3l-5.8 0.6h-3.5q-1.5 0.3-3 0l-13.2 0.6h-1.8l-4.6 0.6h-25.6l-8.1-0.6h-4.1c-1.1 0.3-2.3 0.5-3.5 0.6h-16.3l-39 1.1h-9.2l43.6-1-1.8-0.7h-25.5c-1.8 0.6-3 0-4.7 0h-1.1zm190.3-10.4h34.3c1.8 0 3.5 0 5.3 1.2h17.2l5.2 0.6h17.5l5.8 0.5h19l5.4 0.5h30.8c1.7 0 3.5 0 5.2 1.2h183c1.8 0 3 0 4 1.2l4-1.2h32l4.2-0.6 3.5 0.6h11c1.3-0.8 2.8-0.8 4 0h5.9l10.5 1.2v0.5l-3 0.6h-18.5q-0.3-0.3-0.7-0.4-0.3-0.2-0.7-0.3-0.4 0-0.8 0-0.4 0.1-0.8 0.2h-29.5c-1 0.3-2.3 0.3-3.4 0h-14.6c-1.7 0-3.5 0-4.6 1.1h-5.8l-3-0.6h-17.4c-2 0.3-4 0.1-5.8-0.6h-4.6c-1.2 0.4-2.3 0.6-3.5 0.6h-8.7c-1.2-1-1.8 0-3 0h-44.1l-5.8-0.6h-22.7l-5.2 0.6h-4.7c-1.1-0.6-2.3-1-4-0.6h-15.7c-2-0.4-4-0.4-5.8 0h-35l-4.5-0.5q-1.2-0.3-2.4 0h-22c-1.8 0-3 0-4.1-1.2l-2.3 1.2c-2 0-4-0.3-6-1.2-0.4 1.2-1.6 0.6-2.2 0h-23.1l-5.2-0.6h-17q-0.9 0.1-1.8 0.1-0.8 0-1.7 0-0.9-0.1-1.8-0.3-0.9-0.1-1.7-0.4h-50.4c-1.6 0-3.2 0.1-4.7 0.6h-0.6c-1.1 0-1.7-1-3.4-0.6l-2.4 0.6h-10l-1.6-0.6-2.3 0.6h-1.8c0-0.6-0.5 0-1.1 0h-1.8l-2.3-0.6h-1.2c-1.7 1.2-3.4 0.6-5.8 0.6h-1.7l-5.2-0.6h-5.5c-0.6 0.6-1.7 0.6-2.3 0h-11.6l-3-0.5h-22c-2.3 1.1-4 0-5.8 0h-13.3l-1.1 1.1h-2.4c-1.1-1-4 0-5.8-1h-5.7l-1.7 1-1.8-0.6c-2-0.4-4-0.4-5.8 0-0.8 0.2-1.5 0.2-2.3 0-0.6 0 0-1 0.6-0.5l5.8-1.1h19.2c1.6-0.7 3.5-0.7 5.2 0h31.4l3.5-1.2h16.9c1.7 1.2 3 1.2 4.7 0.6 2.4-1 5-1 7.5 0h3c2 0.4 4.2 0.4 6.3 0h7.6c1.7-0.6 3.4-1.1 4.6-0.6h22.7c0 0.6 1 0.6 1 0 2-0.3 4-0.3 5.9 0zm-383.5-244.8h4l-40.6 3h-32.5c-1.2 0-2.4 0-3.5 1-1.2-1-3.5-0.5-5.8-0.5-1.2-0.2-2.5 0-3.5 0.6h-0.6q-4.6-0.9-9.3 0l-36 0.6h-12.9l-19.8 1h-1.1l-4.7 0.6h-13.4q-0.4 0.1-0.8 0.2-0.5 0.1-0.9 0.1-0.4 0-0.9-0.1-0.4-0.1-0.8-0.2h-11.6q-0.5 0.3-1 0.4-0.5 0.1-1 0.1-0.5 0-1-0.1-0.5-0.1-1-0.4h-15.7v-0.6c0-1 1-1 2.3-1h39c2.8 0 5.7 0 8-1.2h1.8l1.2 0.6 3.5-0.6h14.5c1.2 0 2.9 0 4.6-1.2h48.8l2.9-0.6h3.4l38.4-1.1h30.8c1.7 0 3.5 0 5.2-1.2h4.7c1 1.2 3.5 0 5.8 0l-0.6 0.6zm618.8-2.3c-0.6 0.5-1.7 0-2.2 0h-24c-2.2-1.2-5.1 0-7.4 0h-15.9l-7-0.6h-2.3l-49.4 1.2c-1.6-0.2-3.1 0-4.6 0.5h-1.2l-3-0.5-2.8 0.5h-1.7c0-0.5-0.5-0.5-1.1 0h-19.2c-1.7 1.2-3.5 0.6-5.8 0.6-2.3 0.5-4.7 0.5-7 0h-19.7l-3.5-0.6h-3v0.6h-1l-1.8-0.6h-9l-2.2 0.6h-5.7c-2.3 1.2-4 0-6.4 0h-1.6l-5.8 0.6h-5.8l-1.2 0.6 5.8 0.6h50.6l4.6-0.6c1.8 0 2.3 1 3.5 0.6l2.3-0.6h9.9l2.3 0.6 1.8-0.6h2.3c0 0.6 0.6 0 1.2 0h1.7l2.3 0.6h1.2c1-1.2 3.5-0.6 5.8-0.6h1.2l5.8 0.6h18l3.5 0.5h21.5c2.3-1.1 4.6 0 6.4 0h13.3l1.2-1.1h1.7c1.2 1 4.7 0 5.8 1h6.4l1.8-1 1 0.6 6.5-0.6h1.8c1 0.6 0 1.7 0 1l-5.8 1.3h-56.6l-3.5 1.2h-16.3q-0.4-0.4-0.9-0.6-0.5-0.2-1-0.3-0.5-0.1-1.1 0-0.5 0.1-1 0.3-1 0.4-2 0.6-1 0.2-2.1 0.2-1.1 0-2.1-0.2-1-0.2-2-0.6h-16.8c-1.2 0.6-3 1.2-4.7 0.6h-19.1q-0.4 0.1-0.9 0.2-0.4 0-0.8 0-0.5 0-0.9 0-0.5-0.1-0.9-0.2c0-0.6-0.6-0.6-1.2 0-3 0.5-5.8 0.5-8.7 0h-30.2l-5.8-0.6h-17.5q-0.6-0.4-1.2-0.6-0.6-0.3-1.3-0.3-0.7-0.1-1.4 0-0.7 0.1-1.3 0.3h-17.3c-2-0.6-3.8-1-5.8-1.2h-18.6c-2 0.5-4 0.5-5.8 0h-30.8c-1.8 0-3.5 0-5.3-1.1h-85.4c-2 0.3-4 0-5.8-0.6h-24.5l-3.5 0.6c-1.2-1.2-3.5-0.6-5.2-0.6h-1.2c-1.2-0.2-2.4 0-3.5 0.6h-0.6c-2.3-0.6-4.6-1.2-7-0.6h-46.4l-4.1-0.6-4 0.6h-17.5l-4.6 0.6h-13.4q-1.5 0.3-3 0h-11.5c-1.3 0.8-2.8 0.8-4.1 0h-11.6c-1.4-0.3-2.8-0.7-4.1-1.2v-1.1h70.3c1.8 0 3.5 0 4.7-1.2h2.3l3.5 0.6h20.9c1.7 0 4 0 5.8 1h4l3.6-1h9.3c0.5 1 1 0.6 2.3 0h44c2.5 0 4.8 0 6.5 1h22c1.9 0 4 0 5.9-1h4c1.3 1 3 1 4 1h13.2l4-0.4h39.5c1.8 0 3.5 0 5.3 1h24.2l4.6 0.7 2.3-0.6h7.6l1.7 0.6h10.5l3.5 0.6h7.5l3.5-1.2h9.3c2.4 0 4.7 0 7-1.1h0.6l1.7 0.5h1.2l2.3-0.5q0.4-0.1 0.9 0 0.4 0 0.9 0 0.4 0.1 0.9 0.2 0.4 0.1 0.8 0.3c2.3-0.5 4.7-1.1 7-0.5h14.5l11-0.6q3.1-0.5 6.2-0.8 3.1-0.3 6.3-0.4 3.1-0.1 6.2 0.1 3.2 0.1 6.3 0.5l4-1.2 4 0.6h17.7c1.7-0.6 3.5-1.1 5.2-0.6h1.2l18-0.5h3.5l1.7 0.5c3-1.1 5.9-1.1 8.8-1.1h55.7l4.7 0.6h90.6l-30.2 1h-23.8l2.3 1.3h-5.3zm203.5 5.2h-6.4zm-808-3.5h-2.7c0.8 0.4 1.7 0.3 2.6 0h1.5v-0.6l-1.5 0.6z"/>
	<path id="button-border copy" class="s0" d="m1227 20.9v-1.4l7.8-0.3 1.8-0.6h2.3l-0.6 0.6h14v-4.7h1l0.7 0.6v4h1.7v0.7c0 0.8-1 1-1.7 1v4.8l8 1h8.9v0.7h1.7-1.7l-17-0.5v24.2c0 1.7-0.5 3.4-1.6 4.7v1.1c0.5 1.8 0 3-0.6 4.7v7l-0.6 3.5-1.2 1.7-0.5 2.3v0.6c0 3.5 1.7 5.8 1.7 9.3l0.6 1.2c-1.2 0.5 0 1 0 1v6.4l0.6 1.2v7l1 1.1v-4c0.7-0.6 0-1.8 0-2.4v-7.4l1.3-1.2 1-0.6v1.3l0.7 1.1v2.8l0.6 3v19.6c0 0.6-0.6 1.8 0.6 1.8v14.5c1 0.6 1 1.2 1 1.7v7c-0.4 1.8 0 3 0.7 4v34.3l-0.6 2.3v19.2l0.6 1.7v8.6l2.4 2.4v6.3c0 1.8 0 3.5 1 4.7v12.7l1.3 4v2.4l-1.8 1.7v2.3l-0.5 4v3.6l-0.6 2.3v4l-2.4 0.7v1.7l-0.5 0.6v12.7l0.6 1.1c0 0.6-1.2 1.8 0 2.4v15.7l-0.6 1.7v2.9h-1.2v-7.6l-0.6-1v-28c0.4-1.6 1.2-3.2 2.4-4.6v-6.4l0.5-3v-5.7l1.8-2.3v-2.2c0-3.5-1.8-6.4-1.8-9.3v-1.8c0.6 0 0-1 0-1v-5.9l-1.1-1.8v-6.4l-1.2-1.7v14l-0.6 1.1-1.1 1.2-0.6-1.8v-5.2c-1.2-0.6-1.2-1.2-1.2-2.3v-19.1c0-1.2 0.6-1.8 0-2.3v-1.9c0-0.6 0.6-1.7-0.6-3v-9.8l-0.5-1.7v-2.3c0.5-1.2 0-3-0.6-4v-37.2l-0.6-0.6v-0.6l0.6-3v-17.8h0.6v-1l-1.2-1.3v-9.9c-0.6-0.6-1.7-1-1.7-2.3l-0.6-1.7c0.6-1.2 0.6-3-0.6-4v-0.8c0.6-1.7 0-2.9 0-4.5v-12.2c0-1.8-2.3-3-1.2-4.7-0.6 0 0-1.2 0-1.2l1.2-1.7 0.6-1.7v-8.8l1-2.3v-3.5c0-1 1.9-1 1.9-1l0.6-1.3v-15c0-0.7 1-1.3 0-2.4v-8.2h-0.6l-3.5-0.5h-1.2l-11.6-1.2h-6.4c-1.7-0.6-3-1.2-4.6-0.6l-17.5-1.7h-4c-0.6 0-1.8 0-2.4-1.2q-0.4 0.1-0.8 0.2-0.5 0.1-0.9 0.1-0.4 0-0.9-0.1-0.4-0.1-0.8-0.2l-13.4 0.6h-1.8l-4.6 0.6h-25l-8.1-0.6h-4.7c-1.1 0.4-2.3 0.5-3.5 0.6h-12.2c-0.5 0-1.7 0.5-2.3 0h-1.2l-39.5 1h-8.7l43.6-1c-0.8 0-1.6-0.2-2.3-0.6h-30.4l25.5-1.2h58l7-0.6h5.3-7l-0.5-0.5h-1.8l-4-0.6-2.4-0.6c0-0.6 1.2-0.6 1.2 0h8.7l1.8 0.6h6.4c2.3 0.4 4.6 0.8 7 1l11.6-0.4h1l5-0.6 4.3-0.4 17 0.7v1.4l-19.3-0.5-1.5-0.5 0.4 1.3 10.5 1.5h8l1.3 0.5h1.7l19.2 1.8 4.7 0.6v-4.7h-25.1zm-615.2 259.1h-8c-1.6-1-4.5 0-7 0h-15.6l-7.5-0.5h-2.3l-49.4 1.2c-1.6-0.2-3.2 0-4.7 0.5h-0.5l-3.5-0.5-2.3 0.5h-23.3c-1.2 1.2-3.5 0.6-5.8 0.6-2.3 0.5-4.7 0.5-7 0h-19.9l-3.5-0.6h-2.5l-0.6 0.6h-0.6c-0.6-0.3-1.1-0.5-1.8-0.6h-8.7l-3 0.6h-5.1c-2.3 1.2-4.7 0-7 0h-1.1l-6 0.6h-5.7l-1.1 0.6 5.8 0.6h50l4.6-0.6h0.6c1.7 0 1.7 1.1 3.5 0.6l2.3-0.6h9.9l1.7 0.6 2.4-0.6h2.3c0 0.6 0 0 0.6 0h2.3l2.3 0.6h1.2c1.7-1.2 3.5-0.6 5.8-0.6h1.7l5.3 0.6h18.5l3.5 0.5h21.5c2.4-1 4 0 5.8 0h13.4l1.2-1h2.3c1.2 1 4.6 0 5.8 1h5.8l1.8-1 1.7 0.5 5.8-0.6h2.3c0.6 0.6 0 1.7-0.5 1.1l-5.8 1.2h-56l-3.3 1.2h-17c-1.6-1.2-2.8-1.2-4.5-0.6q-0.9 0.3-1.9 0.5-0.9 0.2-1.9 0.2-1 0-1.9-0.2-1-0.2-1.9-0.5h-16.8c-1.8 0.6-3.5 1.2-5.3 0.6h-18q-0.4 0.1-0.9 0.2-0.4 0-0.9 0-0.4 0-0.8 0-0.5-0.1-0.9-0.2c0-0.6-1.1-0.6-1.1 0-3 0.5-6 0.5-8.7 0h-30.8l-5.3-0.6h-18q-0.5-0.4-1-0.6-0.6-0.3-1.2-0.4-0.6 0-1.2 0.1-0.6 0-1.2 0.3h-17.5c-2-0.6-3.8-1-5.8-1.2h-19.2c-2 0.5-4 0.5-5.8 0h-30.8c-1.7 0-4 0-5.8-1h-84.8c-2 0.2-4 0-5.8-0.7h-24.4l-3 0.6c-1.1-1.2-3.4-0.6-5.8-0.6h-0.5c-1.4-0.3-3 0-4.1 0.6-2.3-0.6-4.7-1.2-7-0.6h-47l-4.1-0.6-3.5 0.6h-17.3l-4.7 0.6h-14.4q-0.4 0.1-0.9 0.2-0.4 0-0.8 0-0.5 0-0.9 0-0.5-0.1-0.9-0.2h-11.6c-1.1 0.5-2.4 0.5-3.5 0h-11.6c-1.6-0.2-3.2-0.6-4.7-1.2v-1h71.5c1.2 0 2.9 0 4.6-1.3h1.8l4 0.6h20.4c2.3 0 4 0 5.8 1.1h4.7l3.4-1h8.8c1 1 1.7 0.5 2.9 0h44c1.9 0 4.2 0 5.9 1h22.7c1.7 0 3.5 0 5.2-1h4c1.8 1 3 1 4.8 1h12.2l4-0.5h39.5c1.8 0 3.5 0 4.7 1.1h25l4 0.6 2.4-0.6h8l1.8 0.6h10.5l4 0.6h6.5l4-1.2h9.3c1.8 0 4 0 6.4-1h1.2l1.2 0.4h1l3-0.5h2.9v0.5c2.3-0.5 5.3-1 7.6-0.5h14.3l10.5-0.6q3.2-0.6 6.3-0.9 3.2-0.3 6.4-0.4 3.2 0 6.4 0.1 3.2 0.2 6.4 0.6l4-1.2c1.3 0 2.4 0 4 1.2h2.5l5.8-0.6h9.3c1.2-0.6 3-1 4.7-0.6h1.7l17.4-0.5h4l1.3 0.5c3-1 6-1.4 9.3-1h55.2l4.6 0.5h91.8l-30.8 1.1h-23.2l1.7 1.2h-22.8zm-591.5-268.2v-11.8h0.6l1 0.6 0.7 0.6v5.8c-0.6 0.6 0 0.6 0 0.6v3.4h1.2l1 0.6h1.3c1.7-0.7 3.6-0.7 5.2 0 3-0.6 5.3-1.1 7.6-0.6h27.1c1.2-0.5 2.9-1.1 4-0.5h17.5c2.6-1 5.5-1 8 0h44.5c2-0.4 3.9-0.4 5.8 0h34.2l5.8 0.5h12.2l5.2 0.6c1.8 0 3 0.6 4.7 0h18l5.2 1.2h19.2l5.8 0.6h1.8l1-0.6h1.3l3.5 0.6h22.6l5.9 0.5h84.8l5.8 0.6h92.4l4 0.6h21c1.7 0 3.5 0 5.2-1.2h28q0.5-0.3 1-0.4 0.5-0.1 1-0.1 0.5 0 1 0.1 0.5 0.1 1 0.4l2.9 0.6h2.3l10.5 1.2c0 1.2-1.8 1.2-3 1.2h-14.5l-2.3-0.6h-33.7q-0.4 0.1-0.9 0.2-0.4 0-0.8 0-0.5 0-0.9 0-0.5-0.1-0.9-0.2h-13.3c-1.8 0-3.5 0-5.3 1h-5.2l-3-0.4h-18c-2 0-4-0.3-5.7-1.2h-4.6l-3 1.2h-9.2c-1.1-1.2-1.7-0.6-3 0h-44.1l-5.8-0.6h-32.5q-0.6-0.3-1.1-0.4-0.6-0.1-1.2-0.1-0.7 0-1.3 0.1-0.5 0.1-1.1 0.4h-16.2c-2-0.5-4-0.5-5.8 0h-33.7l-4.7-0.6h-25c-1.1 0-3 0-4-1.2-0.6 0-1.2 1.2-2.4 0.6-2 0.5-4 0.5-5.8 0h-2.3c0 0-1.2-0.6-1.2 0h-10.6l-4-1.2h-1.7l-3.5 0.6h-2.4c-1.4-0.8-3-1-4.6-0.6h-17.4c-2.4 0.3-4.8 0-7-0.5h-50c-1.7-0.4-3.5-0.4-5.2 0h-10l-2.8 0.5h-3.5l-2.3-0.5h-41.8c-1.1 0-2.3 0-3.4-1.2h-1.4l-1.2 0.6h-17.8c-2.3 1-4.6 0-6.4 0h-14l-1 0.6h-3v23.1c0 1.8-0.6 3-1.7 4.7v0.5l-0.6 5.3v3.5l-0.6 3v2.8c0 1.1-1.7 1.7-1.7 2.3 0.5 0.6 0 1.2 0 2.3v9.3l1 1.3c-1.1 0 0 1 0 1v6l0.6 1.7v6.3l1.2 1.7v-8.7l0.6-3.5v-3l1-1v1.7l1.3 1.2c-0.6 0 0 1 0 1v3l1 2.9v21.4l0.7 1.8c0 0.6-1.1 2.3 0 3.5v9.3c1.2 0.5 1.2 1.1 1.2 2.3v7c-0.6 1 0 2.9 0.6 4v33.6l-0.6 2.4v19l0.6 1.3v9.3l2.3 2.3v6.4c0 1.8 0 3.5 1 4.7v12.1l1.3 4.6v1.2l-1.7 1.7v4l-0.6 4.2v3.4l-0.6 1.8v2.9c0 1.2-2.3 1.2-2.3 1.2v2.3l-0.6 0.6v14c0 0.5-1.2 1 0 2.2v20.3h-1.2v-7.6h-0.5v-29q0.1-0.6 0.2-1.2 0.2-0.6 0.4-1.2 0.2-0.6 0.5-1.1 0.3-0.6 0.6-1.1v-0.6l0.6-5.2v-4l0.6-2.4v-3.5l1.8-1.7v-3c0-2.8-1.7-5.7-1.7-9.2v-1.2c0.5-0.6 0-1 0-1v-1.9l-0.6-2.2v-2.3l-0.7-1.2v-6.4l-1.2-1.7v14.3l-0.5 1.2-1.2 0.5-0.6-1v-1.3l-0.6-1.2v-2.8l-0.5-2.3v-23c0-1.2 0.5-2.4-0.6-3v-10.4l-0.6-1.7v-1.9c0.6-1.7 0-2.9-0.6-4v-38.3h-0.6v-1.2l0.6-2.3v-25.6l-0.6-1v-4c-0.6-0.7-1.7-1.3-1.7-2.4l-0.6-1.8v-4.7l-0.6-4.7v-12.1c0-1.7-2.3-2.9-1.1-4.6-1.2-0.6 0-1.2 0-1.2l1.7-1.7v-9.3l1.2-2.3v-4l1.7-0.7v-1.7l0.6-0.6v-14c0-0.4 1.2-1.6 0-2.2v-7.5h-6.4c-0.8-0.2-1.6-0.2-2.3 0l-1.8 1-1.1-0.5c-2.1-0.6-4.3-0.6-6.4 0h-1.7c-1.1-0.5 0-1.7 0-1.7h15.7c1.2 0 2.7 0 4-0.4zm629.6 267.8l13-0.6h57.6l7-0.6h9.9l16.3-0.5h1.7l4.7-0.6h28.4l2.4-0.6h2.3l-0.6 0.6h12.2c1.6 0 3 0.2 4.6 0.6-0.5 1.1-1.7 1.1-3 1.1h-42.3l-5.8 0.6h-3.5q-1.5 0.3-3 0l-13.2 0.6h-1.8l-4.6 0.6h-25.6l-8.1-0.6h-4.1c-1.1 0.3-2.3 0.5-3.5 0.6h-16.3l-39 1.1h-9.2l43.6-1-1.8-0.7h-25.5c-1.8 0.6-3 0-4.7 0h-1.1zm190.3-10.4h34.3c1.8 0 3.5 0 5.3 1.2h17.2l5.2 0.6h17.5l5.8 0.5h19l5.4 0.5h30.8c1.7 0 3.5 0 5.2 1.2h183c1.8 0 3 0 4 1.2l4-1.2h32l4.2-0.6 3.5 0.6h11c1.3-0.8 2.8-0.8 4 0h5.9l10.5 1.2v0.5l-3 0.6h-18.5q-0.3-0.3-0.7-0.4-0.3-0.2-0.7-0.3-0.4 0-0.8 0-0.4 0.1-0.8 0.2h-29.5c-1 0.3-2.3 0.3-3.4 0h-14.6c-1.7 0-3.5 0-4.6 1.1h-5.8l-3-0.6h-17.4c-2 0.3-4 0.1-5.8-0.6h-4.6c-1.2 0.4-2.3 0.6-3.5 0.6h-8.7c-1.2-1-1.8 0-3 0h-44.1l-5.8-0.6h-22.7l-5.2 0.6h-4.7c-1.1-0.6-2.3-1-4-0.6h-15.7c-2-0.4-4-0.4-5.8 0h-35l-4.5-0.5q-1.2-0.3-2.4 0h-22c-1.8 0-3 0-4.1-1.2l-2.3 1.2c-2 0-4-0.3-6-1.2-0.4 1.2-1.6 0.6-2.2 0h-23.1l-5.2-0.6h-17q-0.9 0.1-1.8 0.1-0.8 0-1.7 0-0.9-0.1-1.8-0.3-0.9-0.1-1.7-0.4h-50.4c-1.6 0-3.2 0.1-4.7 0.6h-0.6c-1.1 0-1.7-1-3.4-0.6l-2.4 0.6h-10l-1.6-0.6-2.3 0.6h-1.8c0-0.6-0.5 0-1.1 0h-1.8l-2.3-0.6h-1.2c-1.7 1.2-3.4 0.6-5.8 0.6h-1.7l-5.2-0.6h-5.5c-0.6 0.6-1.7 0.6-2.3 0h-11.6l-3-0.5h-22c-2.3 1.1-4 0-5.8 0h-13.3l-1.1 1.1h-2.4c-1.1-1-4 0-5.8-1h-5.7l-1.7 1-1.8-0.6c-2-0.4-4-0.4-5.8 0-0.8 0.2-1.5 0.2-2.3 0-0.6 0 0-1 0.6-0.5l5.8-1.1h19.2c1.6-0.7 3.5-0.7 5.2 0h31.4l3.5-1.2h16.9c1.7 1.2 3 1.2 4.7 0.6 2.4-1 5-1 7.5 0h3c2 0.4 4.2 0.4 6.3 0h7.6c1.7-0.6 3.4-1.1 4.6-0.6h22.7c0 0.6 1 0.6 1 0 2-0.3 4-0.3 5.9 0zm-383.5-244.8h4l-40.6 3h-32.5c-1.2 0-2.4 0-3.5 1-1.2-1-3.5-0.5-5.8-0.5-1.2-0.2-2.5 0-3.5 0.6h-0.6q-4.6-0.9-9.3 0l-36 0.6h-12.9l-19.8 1h-1.1l-4.7 0.6h-13.4q-0.4 0.1-0.8 0.2-0.5 0.1-0.9 0.1-0.4 0-0.9-0.1-0.4-0.1-0.8-0.2h-11.6q-0.5 0.3-1 0.4-0.5 0.1-1 0.1-0.5 0-1-0.1-0.5-0.1-1-0.4h-15.7v-0.6c0-1 1-1 2.3-1h39c2.8 0 5.7 0 8-1.2h1.8l1.2 0.6 3.5-0.6h14.5c1.2 0 2.9 0 4.6-1.2h48.8l2.9-0.6h3.4l38.4-1.1h30.8c1.7 0 3.5 0 5.2-1.2h4.7c1 1.2 3.5 0 5.8 0l-0.6 0.6zm618.8-2.3c-0.6 0.5-1.7 0-2.2 0h-24c-2.2-1.2-5.1 0-7.4 0h-15.9l-7-0.6h-2.3l-49.4 1.2c-1.6-0.2-3.1 0-4.6 0.5h-1.2l-3-0.5-2.8 0.5h-1.7c0-0.5-0.5-0.5-1.1 0h-19.2c-1.7 1.2-3.5 0.6-5.8 0.6-2.3 0.5-4.7 0.5-7 0h-19.7l-3.5-0.6h-3v0.6h-1l-1.8-0.6h-9l-2.2 0.6h-5.7c-2.3 1.2-4 0-6.4 0h-1.6l-5.8 0.6h-5.8l-1.2 0.6 5.8 0.6h50.6l4.6-0.6c1.8 0 2.3 1 3.5 0.6l2.3-0.6h9.9l2.3 0.6 1.8-0.6h2.3c0 0.6 0.6 0 1.2 0h1.7l2.3 0.6h1.2c1-1.2 3.5-0.6 5.8-0.6h1.2l5.8 0.6h18l3.5 0.5h21.5c2.3-1.1 4.6 0 6.4 0h13.3l1.2-1.1h1.7c1.2 1 4.7 0 5.8 1h6.4l1.8-1 1 0.6 6.5-0.6h1.8c1 0.6 0 1.7 0 1l-5.8 1.3h-56.6l-3.5 1.2h-16.3q-0.4-0.4-0.9-0.6-0.5-0.2-1-0.3-0.5-0.1-1.1 0-0.5 0.1-1 0.3-1 0.4-2 0.6-1 0.2-2.1 0.2-1.1 0-2.1-0.2-1-0.2-2-0.6h-16.8c-1.2 0.6-3 1.2-4.7 0.6h-19.1q-0.4 0.1-0.9 0.2-0.4 0-0.8 0-0.5 0-0.9 0-0.5-0.1-0.9-0.2c0-0.6-0.6-0.6-1.2 0-3 0.5-5.8 0.5-8.7 0h-30.2l-5.8-0.6h-17.5q-0.6-0.4-1.2-0.6-0.6-0.3-1.3-0.3-0.7-0.1-1.4 0-0.7 0.1-1.3 0.3h-17.3c-2-0.6-3.8-1-5.8-1.2h-18.6c-2 0.5-4 0.5-5.8 0h-30.8c-1.8 0-3.5 0-5.3-1.1h-85.4c-2 0.3-4 0-5.8-0.6h-24.5l-3.5 0.6c-1.2-1.2-3.5-0.6-5.2-0.6h-1.2c-1.2-0.2-2.4 0-3.5 0.6h-0.6c-2.3-0.6-4.6-1.2-7-0.6h-46.4l-4.1-0.6-4 0.6h-17.5l-4.6 0.6h-13.4q-1.5 0.3-3 0h-11.5c-1.3 0.8-2.8 0.8-4.1 0h-11.6c-1.4-0.3-2.8-0.7-4.1-1.2v-1.1h70.3c1.8 0 3.5 0 4.7-1.2h2.3l3.5 0.6h20.9c1.7 0 4 0 5.8 1h4l3.6-1h9.3c0.5 1 1 0.6 2.3 0h44c2.5 0 4.8 0 6.5 1h22c1.9 0 4 0 5.9-1h4c1.3 1 3 1 4 1h13.2l4-0.4h39.5c1.8 0 3.5 0 5.3 1h24.2l4.6 0.7 2.3-0.6h7.6l1.7 0.6h10.5l3.5 0.6h7.5l3.5-1.2h9.3c2.4 0 4.7 0 7-1.1h0.6l1.7 0.5h1.2l2.3-0.5q0.4-0.1 0.9 0 0.4 0 0.9 0 0.4 0.1 0.9 0.2 0.4 0.1 0.8 0.3c2.3-0.5 4.7-1.1 7-0.5h14.5l11-0.6q3.1-0.5 6.2-0.8 3.1-0.3 6.3-0.4 3.1-0.1 6.2 0.1 3.2 0.1 6.3 0.5l4-1.2 4 0.6h17.7c1.7-0.6 3.5-1.1 5.2-0.6h1.2l18-0.5h3.5l1.7 0.5c3-1.1 5.9-1.1 8.8-1.1h55.7l4.7 0.6h90.6l-30.2 1h-23.8l2.3 1.3h-5.3zm203.5 5.2h-6.4zm-808-3.5h-2.7c0.8 0.4 1.7 0.3 2.6 0h1.5v-0.6l-1.5 0.6z"/>
</svg>